<?xml version="1.0" encoding="utf-8"?>
<!-- Generator: Adobe Illustrator 26.5.0, SVG Export Plug-In . SVG Version: 6.00 Build 0)  -->
<svg version="1.1" id="Capa_1" xmlns="http://www.w3.org/2000/svg" xmlns:xlink="http://www.w3.org/1999/xlink" x="0px" y="0px"
	 viewBox="0 0 75 75" style="enable-background:new 0 0 75 75;" xml:space="preserve">
<style type="text/css">
	.st0{fill:#1b294a;}
</style>
<g>
	<path class="st0" d="M4.1,36.5c0,18.4,14.9,33.2,33.2,33.2c18.4,0,33.2-14.9,33.2-33.2c0-18.4-14.9-33.2-33.2-33.2
		C19,3.3,4.1,18.1,4.1,36.5z M63,36.5c0,14.2-11.5,25.7-25.7,25.7c-14.2,0-25.7-11.5-25.7-25.7s11.5-25.7,25.7-25.7
		C51.5,10.8,63,22.3,63,36.5z"/>
	<path class="st0" d="M36.2,16.9v19.5c0,0.6,0.5,1,1,1c0.6,0,1-0.5,1-1V16.9c0-0.6-0.5-1-1-1C36.6,15.9,36.2,16.3,36.2,16.9z"/>
	<path class="st0" d="M19.1,43.9c-0.5,0.2-0.9,0.5-0.9,0.6c0,0.1,0.5,0,1-0.2l18-7.5c0.5-0.2,0.9-0.5,0.9-0.6c0-0.1-0.5,0-1,0.2
		L19.1,43.9z"/>
	<path class="st0" d="M37.7,35c-0.8,0-1.5,0.7-1.5,1.5c0,0.8,0.7,1.5,1.5,1.5h12.8c0.8,0,1.5-0.7,1.5-1.5c0-0.8-0.7-1.5-1.5-1.5
		H37.7z"/>
	<path class="st0" d="M34.9,36.3c0,1.4,1.2,2.6,2.6,2.6c1.4,0,2.6-1.2,2.6-2.6c0-1.4-1.2-2.6-2.6-2.6C36.1,33.7,34.9,34.9,34.9,36.3
		z"/>
</g>
</svg>
