<?xml version="1.0" encoding="UTF-8"?><svg id="Capa_1" xmlns="http://www.w3.org/2000/svg" viewBox="0 0 59.53 59.13"><defs><style>.cls-1{fill:#1b294a;}</style></defs><g id="_10"><path class="cls-1" d="M56.14,24.63h-8.11v-3.51c.23-.08,.44-.24,.57-.48l2.12-3.98,7.12,.58s.06,0,.08,0c.37,0,.72-.2,.9-.54,.19-.36,.15-.79-.1-1.11L47.74,1.82c-.17-.22-.43-.36-.71-.38L29.47,0c-.43-.04-.79,.18-.98,.53-.19,.36-.15,.79,.1,1.11l4.73,5.94-1.87,3.51H2.79c-1.54,0-2.79,1.25-2.79,2.79v31.62c0,1.54,1.25,2.79,2.79,2.79H15.62c-.22,4-1.72,4.69-1.71,4.69-.03,.01-.07,.03-.1,.04H6.89c-1.94,0-3.51,1.57-3.51,3.51v1.56c0,.56,.45,1.01,1.01,1.01H56.14c1.87,0,3.39-1.52,3.39-3.39V28.02c0-1.87-1.52-3.39-3.39-3.39Zm-17.58,28.41v-4.74h1.35v4.74h-1.35Zm-4.33,0s-.04-.02-.06-.03c-.02,0-1.53-.69-1.75-4.71h4.12v4.74h-2.3Zm7.72,0v-4.74h3.3c1.54,0,2.79-1.25,2.79-2.79v-15.47h6.09v23h-12.18Zm5.92-35.33c-2.51-2.95-9.88-6.88-13.73-7.32l1.81-3.39c.31-.57,3.23-.38,7.74,2.02,4.51,2.4,6.29,4.73,5.99,5.3l-1.81,3.39Zm-5.58-.86v21.1H5.75V16.85H42.28Zm4.15-13.42l9.24,11.6-4-.33c.73-3.15-5.67-6.76-7.03-7.48-1.39-.74-8.15-4.15-10.24-1.55l-2.75-3.46,14.78,1.21ZM2.03,45.52V13.89c0-.42,.34-.76,.76-.76H36.11c.12,0,.24-.03,.35-.07,1.08,.39,2.39,.96,3.91,1.76H4.74c-.56,0-1.01,.45-1.01,1.01v23.13c0,.56,.45,1.01,1.01,1.01H43.29c.56,0,1.01-.45,1.01-1.01V17.24c.78,.58,1.36,1.09,1.77,1.51-.05,.12-.08,.25-.08,.39v26.38c0,.42-.34,.76-.76,.76H2.79c-.42,0-.76-.34-.76-.76Zm15.62,2.79h12.72c.11,2.24,.59,3.74,1.14,4.74h-15.01c.55-.99,1.03-2.49,1.14-4.74Zm22.26,8.79H5.41v-.55c0-.82,.66-1.48,1.48-1.48H41.14c.82,0,1.48,.66,1.48,1.48v.55h-2.7Zm17.58-1.36c0,.75-.61,1.36-1.36,1.36h-11.5v-.55c0-.53-.13-1.03-.34-1.48h10.82c.56,0,1.01-.45,1.01-1.01V29.03c0-.56-.45-1.01-1.01-1.01h-7.1v-1.35h8.11c.75,0,1.36,.61,1.36,1.36v27.73Z"/><path class="cls-1" d="M21.55,31.87c.14,.07,.29,.1,.44,.1,.23,0,.46-.08,.64-.23l4.27-3.46c.24-.19,.38-.48,.38-.79s-.14-.6-.38-.79l-4.27-3.46c-.3-.25-.72-.3-1.08-.13-.35,.17-.58,.52-.58,.92v6.93c0,.39,.23,.75,.58,.92Zm1.45-5.72l1.65,1.33-1.65,1.33v-2.67Z"/><path class="cls-1" d="M23.34,36.13c4.66,0,8.46-3.79,8.46-8.46s-3.79-8.46-8.46-8.46-8.46,3.79-8.46,8.46,3.79,8.46,8.46,8.46Zm0-14.88c3.54,0,6.43,2.88,6.43,6.43s-2.88,6.43-6.43,6.43-6.43-2.88-6.43-6.43,2.88-6.43,6.43-6.43Z"/></g></svg>