<?xml version="1.0" encoding="utf-8"?>
<!-- Generator: Adobe Illustrator 26.5.0, SVG Export Plug-In . SVG Version: 6.00 Build 0)  -->
<svg version="1.1" id="Capa_1" xmlns="http://www.w3.org/2000/svg" xmlns:xlink="http://www.w3.org/1999/xlink" x="0px" y="0px"
	 viewBox="0 0 75 75" style="enable-background:new 0 0 75 75;" xml:space="preserve">
<style type="text/css">
	.st0{fill:#fff;}
</style>
<g id="_x32_3">
	<path class="st0" d="M11.5,45.9c-0.8,0-1.4,0.6-1.4,1.4c0,0.8,0.6,1.4,1.4,1.4c0.8,0,1.4-0.6,1.4-1.4
		C12.9,46.5,12.3,45.9,11.5,45.9z"/>
	<path class="st0" d="M58.6,44.8c1.3-2.2,2-4.9,2-7.4c0-5-2.9-9.3-6.9-10.7V9.8c0-0.6-0.5-1.1-1.1-1.1H6.4c-0.6,0-1.1,0.5-1.1,1.1
		v41.9c0,0.6,0.5,1.1,1.1,1.1h15.2v4h-6.6c-0.6,0-1.1,0.5-1.1,1.1c0,0.6,0.5,1.1,1.1,1.1h18.7c-0.5,2.3-0.8,4.7-0.9,7.2
		c0,0.3,0.1,0.6,0.3,0.8c0.2,0.2,0.5,0.3,0.8,0.3h33.8c0.6,0,1.1-0.5,1.1-1.1C68.9,57.3,64.8,46.8,58.6,44.8z M29.3,34.9
		c-2.3,0-4.2-3-4.2-5.5c0-2.5,1.9-4.6,4.2-4.6c2.3,0,4.2,2.1,4.2,4.6C33.5,31.9,31.6,34.9,29.3,34.9z M25.3,35.2
		C25.3,35.2,25.3,35.2,25.3,35.2c1.1,1.1,2.5,1.8,4.1,1.8c1.6,0,2.9-0.7,4-1.9c0.1,0.1,0.1,0.1,0.2,0.2c2.5,1.3,4.2,2.9,5,6.6H20
		C20.7,37.8,22.8,36.6,25.3,35.2z M40.8,41.9c-1-5.1-3.5-7.1-6.2-8.5c0.7-1.3,1.1-2.7,1.1-4.1c0-3.7-2.8-6.8-6.3-6.8
		c-3.5,0-6.3,3-6.3,6.8c0,1.4,0.4,2.8,1.1,4c-2.6,1.5-5.5,3.2-6.2,8.5h-5.6V15.6h34.6v11.7c-3.3,1.8-5.6,5.6-5.6,10.1
		c0,1.5,0.3,3.1,0.7,4.5H40.8z M45.7,44.8c0-0.1-0.1-0.3-0.2-0.4c-1.4-2.1-2.2-4.6-2.2-7c0-1.4,0.3-2.8,0.8-4l0.1,0
		c1.7,0.2,2.2,0.4,2.2,2c0,1,0,4.6,1.9,6.7c0.8,0.9,1.9,1.4,3.1,1.4c1.1,0,2.2,0.1,3.2,0.1c0.9,0,1.6,0,2.2,0
		c-0.2,0.3-0.4,0.6-0.6,0.9c-0.1,0.1-0.1,0.3-0.2,0.5C52.6,45.6,49.1,45.5,45.7,44.8z M58.4,37.4c0,1.3-0.2,2.7-0.7,3.9
		c-0.7,0-3.5,0.1-6.2,0c-0.6,0-1.2-0.3-1.6-0.7c-1.1-1.2-1.4-3.5-1.3-5.1c0.1-3-1.8-3.8-3.3-4.1c1.4-1.9,3.4-3,5.6-3
		C55,28.4,58.4,32.4,58.4,37.4z M51.5,10.9v15.4c-0.2,0-0.4,0-0.6,0c-0.7,0-1.3,0.1-1.9,0.2V14.5c0-0.6-0.5-1.1-1.1-1.1H11.1
		c-0.6,0-1.1,0.5-1.1,1.1v27.4H7.5v-31H51.5z M7.5,44.1h35.4c0.1,0.2,0.2,0.4,0.3,0.5c-2.4,0.7-4.7,2.8-6.4,6c-0.1,0-0.2,0-0.3,0
		H7.5V44.1z M23.8,56.7v-4h11.9c-0.5,1.2-1,2.6-1.4,4H23.8z M43.7,65c0.3-4.2,1.1-8.4,2.4-11.2c0.2-0.5,0-1.2-0.5-1.4
		c-0.5-0.2-1.2,0-1.4,0.5c-1.4,3.1-2.3,7.6-2.6,12.1h-6.5c0.6-9.3,4.5-17.5,9-18.4c4.5,1.2,9.1,1.2,13.6,0.1c4.7,1.4,8.7,9.6,9,18.2
		H43.7z"/>
</g>
</svg>
