<?xml version="1.0" encoding="utf-8"?>
<!-- Generator: Adobe Illustrator 26.5.0, SVG Export Plug-In . SVG Version: 6.00 Build 0)  -->
<svg version="1.1" id="Capa_1" xmlns="http://www.w3.org/2000/svg" xmlns:xlink="http://www.w3.org/1999/xlink" x="0px" y="0px"
	 viewBox="0 0 75 75" style="enable-background:new 0 0 75 75;" xml:space="preserve">
<style type="text/css">
	.st0{fill:#fff;}
</style>
<g>
	<path class="st0" d="M53.9,11.5c-3.3,0-6,2.7-6,6c0,3.3,2.7,6,6,6c3.3,0,6-2.7,6-6C59.9,14.2,57.2,11.5,53.9,11.5z"/>
	<path class="st0" d="M54,6.8c-7.7,0-14,6.3-14,14c0,1.4,0.2,2.8,0.6,4.1l-4.2,2c-3.2-4.9-8.7-8.1-14.9-8.1c-9.8,0-17.8,8-17.8,17.8
		c0,9.8,8,17.8,17.8,17.8c4.6,0,8.7-1.7,11.9-4.6L36,52c-1.8,2.9-2.1,6.6-0.6,10c2.5,5.4,8.8,7.7,14.2,5.3c5.4-2.5,7.7-8.8,5.3-14.2
		c-2.5-5.4-8.8-7.7-14.2-5.3c-0.8,0.4-1.6,0.9-2.3,1.4l-2.5-2.1c2.1-2.9,3.4-6.6,3.4-10.5c0-2.1-0.4-4.1-1-6l4.1-2
		c2.5,3.7,6.8,6.1,11.6,6.1c7.7,0,14-6.3,14-14C67.9,13.1,61.7,6.8,54,6.8z M41.7,50.1c4.1-1.9,9-0.1,10.9,4
		c1.5,3.2,0.7,6.9-1.7,9.3c-0.6-3.1-2-4.2-2.4-4.4c0,0-0.1,0.1-0.1,0.1c0,0-0.1,0.1-0.1,0.1c-0.1,0.1-0.2,0.1-0.3,0.2l-1.9,3.9
		l-0.4-2.2l0.6-0.9c-0.1,0-0.1,0-0.2,0c-0.2,0-0.4,0.1-0.5,0.1c-0.1,0-0.2,0-0.3,0c-0.4,0-0.8,0-1.1-0.1l0.6,0.9l-0.3,2.3l-2.2-4.1
		c-0.1-0.1-0.2-0.2-0.3-0.2l0,0c-1.4,1.2-2.1,2.9-2.4,4.3c-0.7-0.7-1.3-1.5-1.7-2.4C35.8,56.8,37.6,52,41.7,50.1z M26.6,41.9
		c-0.1,0.1-2.4,1.6-2.4,1.6l1.1,1.5l-3.6,2.8l0,0l0,0l0,0l0,0l-3.6-2.8l1.1-1.5c0,0-2.3-1.5-2.4-1.6c-0.2-0.3,1-1.4,1-1.4l3.8,7.4
		l3.8-7.4C25.6,40.5,26.8,41.7,26.6,41.9z M30.9,46.6c-0.5-2.3-1.2-3.9-1.9-5c0.5-2.5,1-5.7,0.7-7.9c0-0.3-0.1-0.7-0.2-1
		c0-0.3,0-0.5-0.1-0.8c-0.2-1-0.5-1.9-0.8-2.7c-0.6-1.5-1.4-2.6-2.5-3.2c-1.2-0.9-2.6-1.4-4.2-1.4c-0.8,0-1.6,0.1-2.3,0.4
		c-2.2,0.5-3.2,1.9-3.6,2.4c-0.3,0.5-0.6,1-0.9,1.7c-0.2,0.5-0.4,1-0.5,1.6c-0.3,1.3-0.6,2.7-0.8,4.1c-0.4,2.4-0.8,4.8-1.7,6.9
		c0,0.1,0,0.1,0,0.2c0,0.1,0.1,0.1,0.2,0.1c0.9-0.2,1.6-0.4,2.1-1c-0.4,1.1-2.1,2-2.1,2c-0.1,0-0.1,0.1-0.1,0.2c0,0.1,0,0.1,0.1,0.2
		c0,0,0.3,0.2,0.8,0.5c-0.5,1-0.8,2.1-1,3c-2.6-2.5-4.3-6-4.3-9.9C7.9,29.1,14,23,21.5,23c7.5,0,13.7,6.1,13.7,13.7
		C35.2,40.6,33.5,44.1,30.9,46.6z M61.5,28.5c-0.8-4.3-2.7-5.8-3.2-6.2c-0.1,0-0.1,0.1-0.2,0.1c-0.1,0-0.1,0.1-0.2,0.1
		c-0.1,0.1-0.2,0.2-0.4,0.3L55,28.1l-0.5-3l0.8-1.2c-0.1,0-0.2,0-0.3,0.1c-0.2,0-0.5,0.1-0.7,0.1c-0.1,0-0.3,0-0.4,0
		c-0.5,0-1-0.1-1.5-0.2l0.8,1.2l-0.5,3.1l-2.8-5.5c-0.1-0.1-0.3-0.2-0.4-0.3l-0.1,0c-1.9,1.6-2.8,3.9-3.3,5.8
		c-1.8-1.9-2.9-4.5-2.9-7.3c0-5.9,4.8-10.7,10.7-10.7c5.9,0,10.7,4.8,10.7,10.7C64.7,23.8,63.4,26.5,61.5,28.5z"/>
	<path class="st0" d="M45.1,50.9c-2.5,0-4.5,2.1-4.5,4.6c0,2.5,2.1,4.5,4.6,4.5c2.5,0,4.5-2.1,4.5-4.6
		C49.6,52.9,47.6,50.9,45.1,50.9z"/>
	<rect x="21.8" y="47.9" transform="matrix(0.691 -0.7229 0.7229 0.691 -27.9021 30.5351)" class="st0" width="0" height="0"/>
</g>
</svg>
