<?xml version="1.0" encoding="utf-8"?>
<!-- Generator: Adobe Illustrator 26.5.0, SVG Export Plug-In . SVG Version: 6.00 Build 0)  -->
<svg version="1.1" id="Capa_1" xmlns="http://www.w3.org/2000/svg" xmlns:xlink="http://www.w3.org/1999/xlink" x="0px" y="0px"
	 viewBox="0 0 68.7 53.7" style="enable-background:new 0 0 68.7 53.7;" xml:space="preserve">
<style type="text/css">
	.st0{fill:#fff;}
</style>
<g id="_1">
	<path class="st0" d="M60.7,37.5h-4.1V9.4c0-2.2-1.8-3.9-3.9-3.9H16c-2.2,0-3.9,1.8-3.9,3.9v28.1H8c-0.5,0-0.9,0.4-0.9,0.9v2
		c0,2.7,2.2,4.9,4.9,4.9h0.1v1.9c0,0.5,0.4,0.9,0.9,0.9h8.8c0.5,0,0.9-0.4,0.9-0.9v-1.9h23.2v1.9c0,0.5,0.4,0.9,0.9,0.9h8.8
		c0.5,0,0.9-0.4,0.9-0.9v-1.9h0.1c2.7,0,4.9-2.2,4.9-4.9v-2C61.6,37.9,61.2,37.5,60.7,37.5z M14,9.4c0-1.1,0.9-2,2-2h36.7
		c1.1,0,2,0.9,2,2v28.1H14V9.4z M27.4,39.4h13.8v0.4c0,0.3-0.2,0.5-0.5,0.5H28c-0.3,0-0.5-0.2-0.5-0.5L27.4,39.4L27.4,39.4z
		 M20.9,46.3H14v-0.9h6.9V46.3z M54.7,46.3h-6.9v-0.9h6.9V46.3z M59.7,40.4c0,1.7-1.3,3-3,3H12c-1.7,0-3-1.3-3-3v-1.1h16.6v0.4
		c0,1.3,1.1,2.4,2.4,2.4h12.7c1.3,0,2.4-1.1,2.4-2.4v-0.4h16.6L59.7,40.4L59.7,40.4z"/>
	<path class="st0" d="M52.2,34.7V10.9c0-0.5-0.4-0.9-0.9-0.9H17.4c-0.5,0-0.9,0.4-0.9,0.9v23.8c0,0.5,0.4,0.9,0.9,0.9h33.8
		C51.8,35.6,52.2,35.2,52.2,34.7L52.2,34.7z M50.3,33.7h-32V11.8h32C50.3,11.8,50.3,33.7,50.3,33.7z"/>
	<path class="st0" d="M21.8,20.5l5.3,2.3V29c0,0.4,0.3,0.8,0.7,0.9c2.2,0.7,4.3,1,6.5,1c2.2,0,4.4-0.3,6.6-1
		c0.4-0.1,0.7-0.5,0.7-0.9v-6.2l3.8-1.6v7l-1.7,2.9c-0.2,0.3-0.2,0.7,0,0.9c0.2,0.3,0.5,0.5,0.8,0.5h3.8c0.3,0,0.7-0.2,0.8-0.5
		c0.2-0.3,0.2-0.7,0-0.9l-1.7-2.9v-7.9c0.2-0.2,0.2-0.4,0.2-0.6c0-0.4-0.2-0.7-0.6-0.9l-12.1-5.3c-0.2-0.1-0.5-0.1-0.7,0l-12.1,5.3
		c-0.3,0.2-0.6,0.5-0.6,0.9C21.2,20,21.5,20.4,21.8,20.5L21.8,20.5z M39.7,28.3c-3.6,0.9-7.1,0.9-10.7,0v-4.7l5,2.1
		c0.1,0,0.2,0.1,0.4,0.1s0.3,0,0.4-0.1l5-2.1V28.3z M46,30.6l0.2-0.4l0.2,0.4H46L46,30.6z M34.3,15.4l9.8,4.2l-3.7,1.6
		c-0.2,0-0.3,0.1-0.4,0.2l-5.7,2.5l-5.7-2.5c-0.1-0.1-0.3-0.2-0.4-0.2l-3.7-1.6L34.3,15.4z"/>
</g>
</svg>
