<?xml version="1.0" encoding="utf-8"?>
<!-- Generator: Adobe Illustrator 26.5.0, SVG Export Plug-In . SVG Version: 6.00 Build 0)  -->
<svg version="1.1" id="Capa_1" xmlns="http://www.w3.org/2000/svg" xmlns:xlink="http://www.w3.org/1999/xlink" x="0px" y="0px"
	 viewBox="0 0 75 75" style="enable-background:new 0 0 75 75;" xml:space="preserve">
<style type="text/css">
	.st0{fill:#fff;}
</style>
<g id="_x33_">
	<path class="st0" d="M61.2,22.3H50.7v-7.7c0-2.7-2.2-4.9-4.9-4.9H13.8c-2.7,0-4.9,2.2-4.9,4.9v46.7c0,2.7,2.2,4.9,4.9,4.9h27.1h0.2
		h20.2c2.3,0,4.1-1.8,4.1-4.1V26.4C65.3,24.2,63.5,22.3,61.2,22.3z M10.9,61.3V14.6c0-1.6,1.3-2.9,2.9-2.9h32.1
		c1.6,0,2.9,1.3,2.9,2.9v7.7h-2v-7c0-0.6-0.4-1-1-1H13.8c-0.6,0-1,0.4-1,1v41.9c0,0.6,0.4,1,1,1h22.9v3.9c0,0.8,0.2,1.5,0.6,2.1
		H13.8C12.2,64.2,10.9,62.9,10.9,61.3z M40.8,22.3c-2.3,0-4.1,1.8-4.1,4.1v7.5l-7.1-3.1c-0.3-0.1-0.5-0.1-0.8,0l-10.4,4.5
		c-0.4,0.2-0.6,0.5-0.6,0.9c0,0.4,0.2,0.8,0.6,0.9l4.4,1.9v5.2c0,0.4,0.3,0.8,0.7,1c1.9,0.6,3.8,0.8,5.6,0.8c1.9,0,3.8-0.3,5.7-0.8
		c0.4-0.1,0.7-0.5,0.7-1v-5.2l1.1-0.5v17.6H14.8V16.4h29.9v6H40.8z M24.9,40l4,1.7c0.1,0.1,0.3,0.1,0.4,0.1c0.1,0,0.3,0,0.4-0.1
		l4-1.7v3.6c-2.9,0.8-5.9,0.8-8.8,0V40z M29.2,39.7l-7.9-3.4l7.9-3.4l7.5,3.2v0.3L29.2,39.7z M63.3,62.1c0,1.2-0.9,2.1-2.1,2.1H41.1
		h-0.2c-1.2,0-2.1-0.9-2.1-2.1V26.4c0-1.2,0.9-2.1,2.1-2.1h20.4c1.2,0,2.1,0.9,2.1,2.1V62.1z"/>
	<path class="st0" d="M60.3,27H41.7c-0.6,0-1,0.4-1,1v32.6c0,0.6,0.4,1,1,1h18.6c0.6,0,1-0.4,1-1V28C61.3,27.4,60.9,27,60.3,27z
		 M59.4,59.5H42.7V29h16.6V59.5z"/>
	<path class="st0" d="M29.7,59.6c-0.7,0-1.3,0.6-1.3,1.3c0,0.7,0.6,1.3,1.3,1.3s1.3-0.6,1.3-1.3C31.1,60.2,30.5,59.6,29.7,59.6z"/>
	<path class="st0" d="M48.1,49.6c0.1,0.1,0.3,0.1,0.5,0.1c0.2,0,0.4-0.1,0.6-0.2l6.4-4.5c0.3-0.2,0.4-0.5,0.4-0.8
		c0-0.3-0.2-0.6-0.4-0.8l-6.4-4.5c-0.3-0.2-0.7-0.2-1-0.1c-0.3,0.2-0.5,0.5-0.5,0.9v9C47.5,49.1,47.7,49.5,48.1,49.6z M49.5,41.7
		l3.7,2.6l-3.7,2.6V41.7z"/>
</g>
</svg>
