<?xml version="1.0" encoding="utf-8"?>
<!-- Generator: Adobe Illustrator 26.5.0, SVG Export Plug-In . SVG Version: 6.00 Build 0)  -->
<svg version="1.1" id="Capa_1" xmlns="http://www.w3.org/2000/svg" xmlns:xlink="http://www.w3.org/1999/xlink" x="0px" y="0px"
	 viewBox="0 0 75 75" style="enable-background:new 0 0 75 75;fill:#fff" xml:space="preserve">
<g id="_x34_4">
	<path d="M61.3,12H13.7c-1.6,0-3,1.3-3,3v34.9c0,1.6,1.3,3,3,3h15.4c-0.1,3.3-1.2,4.2-1.5,4.4H23c-2.6,0-4.7,2.1-4.7,4.7
		c0,0.5,0.4,0.9,0.9,0.9h36.5c0.5,0,0.9-0.4,0.9-0.9c0-2.6-2.1-4.7-4.7-4.7h-4.4c-0.3-0.2-1.4-1.1-1.5-4.4h15.2c1.6,0,3-1.3,3-3V15
		C64.3,13.3,62.9,12,61.3,12z M13.7,13.9h47.5c0.6,0,1.1,0.5,1.1,1.1v29.1h-1.9V17.4c0-0.5-0.4-0.9-0.9-0.9H15.8
		c-0.5,0-0.9,0.4-0.9,0.9v26.8h-2.2V15C12.6,14.4,13.1,13.9,13.7,13.9z M16.7,44.1V18.3h41.9v25.8H16.7z M54.7,61.1H20.3
		c0.4-1.1,1.4-1.9,2.7-1.9h24.3c0,0,0,0,0,0c0,0,0,0,0,0H52C53.2,59.2,54.3,60,54.7,61.1z M45.2,57.3H30.1c0.5-0.9,0.9-2.3,1-4.4
		h13.1C44.2,55,44.6,56.4,45.2,57.3z M61.3,51H13.7c-0.6,0-1.1-0.5-1.1-1.1V46h49.7v3.9C62.4,50.5,61.9,51,61.3,51z"/>
	<path d="M37.8,47.3c-0.7,0-1.3,0.6-1.3,1.3s0.6,1.3,1.3,1.3s1.3-0.6,1.3-1.3S38.5,47.3,37.8,47.3z"/>
	<path d="M54.6,35.8c-0.5,0-0.9,0.4-0.9,0.9v1.2H29.7v-0.2c0-1.4-1.1-2.5-2.5-2.5c-1.4,0-2.5,1.1-2.5,2.5v0.2h-2.5v-1.2
		c0-0.5-0.4-0.9-0.9-0.9c-0.5,0-0.9,0.4-0.9,0.9V41c0,0.5,0.4,0.9,0.9,0.9c0.5,0,0.9-0.4,0.9-0.9v-1.2h2.5V40c0,1.4,1.1,2.5,2.5,2.5
		c1.4,0,2.5-1.1,2.5-2.5v-0.2h23.9V41c0,0.5,0.4,0.9,0.9,0.9c0.5,0,0.9-0.4,0.9-0.9v-4.2C55.5,36.2,55.1,35.8,54.6,35.8z M27.8,40
		c0,0.3-0.3,0.6-0.6,0.6c-0.3,0-0.6-0.3-0.6-0.6v-2.3c0-0.3,0.3-0.6,0.6-0.6c0.3,0,0.6,0.3,0.6,0.6V40z"/>
</g>
<g>
	<g>
		<path d="M44.6,25.1H31.2c-0.4,0-0.8,0.4-0.8,0.8v6.7c0,0.4,0.4,0.8,0.8,0.8h13.4c0.4,0,0.8-0.4,0.8-0.8v-6.7
			C45.4,25.5,45.1,25.1,44.6,25.1z M34.7,31.5h-2.1c-0.2,0-0.4-0.1-0.4-0.3c-0.1-0.2,0-0.4,0.1-0.5l1.3-1.5c0.2-0.2,0.4-0.5,0.4-0.7
			c0-0.2,0-0.3-0.1-0.4C33.8,28,33.7,28,33.7,28c-0.2,0-0.4,0.1-0.4,0.4c0,0.3-0.2,0.5-0.5,0.5c-0.3,0-0.5-0.2-0.5-0.5
			c0-0.8,0.7-1.3,1.4-1.3c0.4,0,0.7,0.1,0.9,0.4c0.2,0.2,0.4,0.5,0.4,1.1c0,0.6-0.4,1-0.7,1.3l-0.6,0.7h1c0.3,0,0.5,0.2,0.5,0.5
			S34.9,31.5,34.7,31.5z M38,30.5V31c0,0.3-0.2,0.5-0.5,0.5c-0.3,0-0.5-0.2-0.5-0.5v-0.4h-1.4c-0.2,0-0.4-0.1-0.4-0.3
			c-0.1-0.2-0.1-0.4,0.1-0.5l1.9-2.4c0,0,0,0,0,0c0,0,0,0,0.1-0.1c0,0,0,0,0.1-0.1c0,0,0.1,0,0.1,0c0,0,0.1,0,0.1,0c0,0,0,0,0,0
			c0,0,0,0,0.1,0c0,0,0.1,0,0.1,0c0,0,0.1,0,0.1,0c0,0,0,0,0.1,0c0,0,0,0,0,0c0,0,0,0,0.1,0.1c0,0,0,0,0.1,0.1c0,0,0,0.1,0,0.1
			c0,0,0,0.1,0,0.1c0,0,0,0,0,0v2c0.2,0.1,0.3,0.2,0.3,0.4C38.3,30.2,38.2,30.4,38,30.5z M40.3,29.4c-0.1,0.1-0.2,0.1-0.4,0.1
			s-0.3-0.1-0.3-0.1c-0.1-0.1-0.1-0.2-0.1-0.4c0,0,0-0.1,0-0.1c0,0,0-0.1,0-0.1c0,0,0-0.1,0-0.1c0,0,0-0.1,0.1-0.1
			c0.2-0.2,0.5-0.2,0.7,0c0,0,0,0,0.1,0.1c0,0,0,0.1,0,0.1c0,0,0,0.1,0,0.1c0,0,0,0.1,0,0.1C40.4,29.2,40.4,29.3,40.3,29.4z
			 M43.7,27.8l-1.4,3.4c-0.1,0.2-0.3,0.3-0.5,0.3c-0.1,0-0.1,0-0.2,0c-0.3-0.1-0.4-0.4-0.3-0.6l1.1-2.7h-1c-0.3,0-0.5-0.2-0.5-0.5
			c0-0.3,0.2-0.5,0.5-0.5h1.7c0.2,0,0.3,0.1,0.4,0.2C43.7,27.4,43.8,27.6,43.7,27.8z M37,29.5V29l-0.4,0.5H37z"/>
		<path d="M36.2,21.9c-0.1-0.3-0.5-0.4-0.7-0.2l-2.2,1.8c-0.2,0.2-0.3,0.5-0.1,0.7c0.1,0.1,0.2,0.2,0.4,0.2c0.1,0,0.2,0,0.3-0.1
			l2.2-1.8C36.2,22.3,36.3,22.1,36.2,21.9C36.2,21.9,36.2,21.9,36.2,21.9z M37.9,19.9c-0.7,0-1.3,0.6-1.3,1.3c0,0.7,0.6,1.3,1.3,1.3
			c0.7,0,1.3-0.6,1.3-1.3C39.2,20.5,38.6,19.9,37.9,19.9z M42.5,23.3l-2.1-1.6c-0.2-0.2-0.6-0.1-0.7,0.2c0,0,0,0,0,0
			c-0.1,0.2,0,0.4,0.1,0.6l2.1,1.6c0.1,0.1,0.2,0.1,0.3,0.1c0.1,0,0.3-0.1,0.4-0.2C42.7,23.8,42.7,23.5,42.5,23.3z"/>
	</g>
</g>
</svg>
